<svg width="21" height="22" viewBox="0 0 21 22" fill="none" xmlns="http://www.w3.org/2000/svg">
<path d="M1.11213 21.25L1.11241 20.9997C1.11289 20.5753 1.1161 20.1523 1.11929 19.7303C1.12675 18.7462 1.13416 17.7673 1.10693 16.7865L1.10693 16.7865C1.0724 15.5399 1.4976 14.4807 2.23279 13.5389C3.24986 12.236 4.56315 11.3302 6.03845 10.6648L6.03853 10.6648C6.05888 10.6556 6.07919 10.6464 6.09955 10.637C3.46783 8.02066 4.01229 4.21649 6.16722 2.25277M1.11213 21.25L2.23034 16.9137C2.18039 15.7691 2.60315 14.8289 3.34514 13.9722C4.19407 12.9944 5.2373 12.2707 6.42301 11.7424C6.76487 11.5902 7.11133 11.4613 7.48816 11.3211C7.67151 11.2528 7.86205 11.1819 8.06274 11.1044L8.55638 10.9136L8.09551 10.6535C6.69312 9.86189 5.78092 8.77162 5.52755 7.2401L5.52754 7.24003C5.26921 5.68094 5.70935 4.32318 6.8325 3.20155C8.64639 1.3915 11.5695 1.43005 13.3675 3.29077L13.3675 3.2908C14.2419 4.19555 14.6824 5.2879 14.6492 6.535L14.6492 6.53504C14.6008 8.36309 13.6829 9.68293 12.173 10.5713L11.7597 10.8144L12.1957 11.0141C13.3316 11.5342 14.4659 12.0544 15.6313 12.5889L15.8152 12.6732L15.936 12.511C15.9853 12.4449 16.0697 12.3296 16.1938 12.1601C16.2183 12.1268 16.2442 12.0913 16.2718 12.0537L16.4409 11.8228L16.1894 11.6863C15.6559 11.3966 15.1343 11.1132 14.6166 10.8317C14.4405 10.736 14.2649 10.6406 14.0894 10.5452C16.4833 8.07304 16.1917 4.53695 14.1447 2.45124C11.99 0.255659 8.44073 0.180719 6.16722 2.25277M1.11213 21.25H1.36241M1.11213 21.25H1.36241M6.16722 2.25277L6.33561 2.43755M6.16722 2.25277L6.33561 2.43755M6.33561 2.43755C8.51113 0.454809 11.907 0.528097 13.9663 2.62635L6.34129 10.5239C3.7455 8.01443 4.25902 4.32989 6.33561 2.43755ZM1.36241 21.25H1.38373H1.40505H1.42636H1.44768H1.469H1.49031H1.51163H1.53295H1.55427H1.57558H1.5969H1.61822H1.63953H1.66085H1.68217H1.70348H1.7248H1.74612H1.76743H1.78875H1.81007H1.83139H1.8527H1.87402H1.89534H1.91665H1.93797H1.95929H1.9806H2.00192H2.02324H2.04455H2.06587H2.08719H2.1085H2.12982H2.15114H2.17246H2.19377H2.21509H2.23641H2.25772H2.27904H2.30036H2.32167H2.34299H2.36431H2.38562H2.40694H2.42826H2.44957H2.47089H2.49221H2.51353H2.53484H2.55616H2.57748H2.59879H2.62011H2.64143H2.66274H2.68406H2.70538H2.72669H2.74801H2.76933H2.79064H2.81196H2.83328H2.85459H2.87591H2.89723H2.91855H2.93986H2.96118H2.9825H3.00381H3.02513H3.04645H3.06776H3.08908H3.1104H3.13171H3.15303H3.17435H3.19566H3.21698H3.2383H3.25961H3.28093H3.30225H3.32356H3.34488H3.3662H3.38751H3.40883H3.43015H3.45146H3.47278H3.4941H3.51541H3.53673H3.55805H3.57937H3.60068H3.622H3.64332H3.66463H3.68595H3.70727H3.72858H3.7499H3.77122H3.79253H3.81385H3.83517H3.85648H3.8778H3.89912H3.92043H3.94175H3.96307H3.98438H4.0057H4.02702H4.04833H4.06965H4.09097H4.11228H4.1336H4.15492H4.17623H4.19755H4.21886H4.24018H4.2615H4.28281H4.30413H4.32545H4.34676H4.36808H4.3894H4.41071H4.43203H4.45335H4.47466H4.49598H4.5173H4.53861H4.55993H4.58125H4.60256H4.62388H4.6452H4.66651H4.68783H4.70915H4.73046H4.75178H4.77309H4.79441H4.81573H4.83704H4.85836H4.87968H4.90099H4.92231H4.94363H4.96494H4.98626H5.00758H5.02889H5.05021H5.07152H5.09284H5.11416H5.13547H5.15679H5.17811H5.19942H5.22074H5.24206H5.26337H5.28469H5.306H5.32732H5.34864H5.36995H5.39127H5.41259H5.4339H5.45522H5.47653H5.49785H5.51917H5.54048H5.5618H5.58312H5.60443H5.62575H5.64706H5.66838H5.6897H5.71101H5.73233H5.75364H5.77496H5.79628H5.81759H5.83891H5.86023H5.88154H5.90286H5.92417H5.94549H5.96681H5.98812H6.00944H6.03075H6.05207H6.07339H6.0947H6.11602H6.13733H6.15865H6.17997H6.20128H6.2226H6.24391H6.26523H6.28655H6.30786H6.32918H6.35049H6.37181H6.39313H6.41444H6.43576H6.45707H6.47839H6.49971H6.52102H6.54234H6.56365H6.58497H6.60628H6.6276H6.64892H6.67023H6.69155H6.71286H6.73418H6.7555H6.77681H6.79813H6.81944H6.84076H6.86207H6.88339H6.90471H6.92602H6.94734H6.96865H6.98997H7.01128H7.0326H7.05392H7.07523H7.09655H7.11786H7.13918H7.16049H7.18181H7.20312H7.22444H7.24576H7.26707H7.28839H7.3097H7.33102H7.35233H7.37365H7.39496H7.41628H7.4376H7.45891H7.48023H7.50154H7.52286H7.54417H7.56549H7.5868H7.60812H7.62943H7.65075H7.67206H7.69338H7.7147H7.73601H7.75733H7.77864H7.79996H7.82127H7.84259H7.8639H7.88522H7.90653H7.92785H7.94916H7.97048H7.99179H8.01311H8.03442H8.05574H8.07705H8.09837H8.11968H8.141H8.16231H8.18363H8.20495H8.22626H8.24758H8.26889H8.29021H8.31152H8.33284H8.35415H8.37547H8.39678H8.4181H8.43941H8.46073H8.48204H8.50336H8.52467H8.54599H8.5673H8.58861H8.60993H8.63124H8.65256H8.67387H8.69519H8.7165H8.73782H8.75913H8.78045H8.80176H8.82308H8.84439H8.86571H8.88702H8.90834H8.92965H8.95097H8.97228H8.9936H9.01491H9.03622H9.05754H9.07885H9.10017H9.12148H9.1428H9.16411H9.18543H9.20674H9.22806H9.24937H9.27068H9.292H9.31331H9.33463H9.35594H9.37726H9.39857H9.41988H9.4412H9.46251H9.48383H9.50514H9.52646H9.54777H9.56909H9.5904H9.61171H9.63303H9.65434H9.67566H9.69697H9.71828H9.7396H9.76091H9.78223H9.80354H9.82486H9.84617H9.86748H9.8888H9.91011H9.93143H9.95274H9.97405H9.99537H10.0167H10.038H10.0593H10.0806H10.1019H10.1233H10.1446H10.1659H10.1872H10.2085H10.2298H10.2511H10.2724H10.2938H10.3151H10.3364H10.3577H10.379H10.4003H10.4216H10.443H10.4643H10.4856H10.5069H10.5282H10.5495H10.5708H10.5922H10.6135H10.6348H10.6561H10.6774H10.6987H10.72H10.7413H10.7627H10.784H10.8053H10.8266H10.8479H10.8692H10.8905H10.9119H10.9332H10.9545H10.9758H10.9971H11.0184H11.0397H11.061H11.0824H11.1037H11.125H11.1463H11.1676H11.1889H11.2102H11.2316H11.2529H11.2742H11.2955H11.3168H11.3381H11.3594H11.3807H11.4021H11.4234H11.4447H11.466H11.4873H11.5086H11.5299H11.5512H11.5726H11.5939H11.6152H11.6365H11.6578H11.6791H11.7004H11.7218H11.7431H11.7644H11.7857H11.807H11.8283H11.8496H11.8709H11.8923H11.9136H11.9349H11.9562H11.9775H11.9988H12.0201H12.0414H12.0628H12.0841H12.1054H12.1267H12.148H12.1693H12.1906H12.2119H12.2333H12.2546H12.2759H12.5128L12.5255 21.0134L12.5263 20.9995C12.5346 20.8445 12.542 20.7076 12.5357 20.5996C12.5294 20.4915 12.5078 20.3521 12.4043 20.2435C12.3012 20.1351 12.1631 20.1064 12.0555 20.0944C11.9476 20.0824 11.81 20.0824 11.654 20.0824H11.6402C10.8834 20.0824 10.1266 20.0825 9.36986 20.0825C7.0998 20.0827 4.83006 20.0828 2.55984 20.0816H2.55971M1.36241 21.25L2.55971 20.0816M2.55971 20.0816C2.45522 20.0816 2.35397 20.0764 2.24144 20.07M2.55971 20.0816L2.24144 20.07M2.24144 20.07C2.24255 19.7994 2.24533 19.5293 2.2481 19.26C2.25621 18.4718 2.26426 17.6895 2.23034 16.9137L2.24144 20.07Z" fill="black" stroke="black" stroke-width="0.5"/>
<path d="M19.8524 20.4543L20.0197 20.2685L19.8339 20.1012C19.6741 19.9574 19.5181 19.816 19.3644 19.6768C19.0059 19.3521 18.6602 19.0389 18.31 18.7329C18.2302 18.6626 18.2204 18.6379 18.219 18.6336C18.2189 18.6332 18.2187 18.6326 18.2186 18.6311C18.2185 18.6294 18.2184 18.6252 18.2194 18.6178C18.2216 18.6019 18.2288 18.5734 18.2496 18.5272L18.2498 18.5269C19.1583 16.5006 17.6626 14.3872 15.4507 14.5315L15.4505 14.5315C14.0192 14.6257 12.9032 15.8443 12.8893 17.3022L12.8893 17.3022C12.8754 18.7806 13.9869 20.022 15.4287 20.1372L15.4288 20.1372C16.2051 20.1989 16.8906 19.9872 17.4926 19.5247C17.7253 19.7331 17.9541 19.9378 18.1817 20.1414C18.4805 20.4087 18.7771 20.6741 19.0776 20.9433L19.2635 21.1098L19.4304 20.9242C19.4931 20.8544 19.5509 20.79 19.6079 20.7265C19.6869 20.6385 19.7645 20.552 19.8524 20.4543ZM15.7092 15.6539L15.7092 15.6539C16.655 15.6566 17.3919 16.4048 17.3821 17.3594L17.3821 17.3597C17.3738 18.2843 16.6277 19.0194 15.6939 19.0166L15.6937 19.0166C14.7509 19.0145 14.0104 18.2621 14.0194 17.3086C14.0291 16.3825 14.7728 15.6511 15.7092 15.6539Z" fill="black" stroke="black" stroke-width="0.5"/>
</svg>
