<svg width="11" height="10" viewBox="0 0 11 10" fill="none" xmlns="http://www.w3.org/2000/svg">
<path d="M6.182 1.67133L0.674108 7.17966C0.646373 7.20746 0.626606 7.2422 0.616869 7.28025L0.00635108 9.73068C-0.0026281 9.76704 -0.00207783 9.80511 0.00794875 9.8412C0.0179753 9.87729 0.0371393 9.91018 0.0635897 9.9367C0.104217 9.9772 0.159225 9.99995 0.216585 10C0.23428 10 0.251907 9.99781 0.269067 9.9935L2.71949 9.3829C2.7576 9.37332 2.79238 9.35356 2.82011 9.32574L8.32851 3.8178L6.182 1.67133ZM9.69305 0.92028L9.07993 0.30718C8.67016 -0.102597 7.95595 -0.10219 7.54665 0.30718L6.79561 1.05823L8.94202 3.20462L9.69305 2.45359C9.89774 2.24898 10.0105 1.97663 10.0105 1.68698C10.0105 1.39734 9.89774 1.12498 9.69305 0.92028Z" fill="#222222"/>
</svg>
