<svg width="511" height="512" viewBox="0 0 511 512" fill="none" xmlns="http://www.w3.org/2000/svg">
<path d="M422 99V75C422 33.645 388.355 0 347 0H163C121.645 0 88 33.645 88 75V99H422ZM118 319V482C118 498.568 131.431 512 148 512H362C378.569 512 392 498.568 392 482V319H118ZM295 447H215C206.716 447 200 440.284 200 432C200 423.716 206.716 417 215 417H295C303.284 417 310 423.716 310 432C310 440.284 303.284 447 295 447ZM295 383H215C206.716 383 200 376.284 200 368C200 359.716 206.716 353 215 353H295C303.284 353 310 359.716 310 368C310 376.284 303.284 383 295 383Z" fill="black"/>
<path d="M436 129H75C33.645 129 0 162.645 0 204V324C0 365.355 33.645 399 75 399H88V319H79C70.716 319 64 312.284 64 304C64 295.716 70.716 289 79 289H431C439.284 289 446 295.716 446 304C446 312.284 439.284 319 431 319H422V399H436C477.355 399 511 365.355 511 324V204C511 162.645 477.355 129 436 129ZM127 223H79C70.716 223 64 216.284 64 208C64 199.716 70.716 193 79 193H127C135.284 193 142 199.716 142 208C142 216.284 135.284 223 127 223Z" fill="black"/>
</svg>
