<svg width="12" height="20" viewBox="0 0 12 20" fill="none" xmlns="http://www.w3.org/2000/svg">
<path d="M5.44346 10.033C5.09342 9.93028 4.7394 9.84234 4.39647 9.72253C3.75189 9.49742 3.13207 9.21512 2.57058 8.8204C1.85258 8.31555 1.38813 7.62401 1.15392 6.78761C0.849702 5.70107 0.88869 4.61738 1.33606 3.57637C1.85599 2.36603 2.75955 1.56208 4.03733 1.21347C4.4642 1.09707 4.90673 1.03646 5.34328 0.957056C5.42468 0.942258 5.45683 0.918068 5.45541 0.832978C5.45114 0.558354 5.45399 0.284015 5.45399 0C5.84671 0 6.22891 0 6.62761 0C6.62761 0.306782 6.62761 0.616978 6.62761 0.940266C8.02947 1.07117 9.24379 1.54757 10.0984 2.71522C10.5805 3.37403 10.8372 4.12049 10.9507 4.93327C10.2581 5.03742 9.57789 5.13987 8.89802 5.24232C8.62226 3.42753 7.62479 2.81027 6.63871 2.64578C6.63871 4.54708 6.63871 6.44754 6.63871 8.3312C7.25455 8.51504 7.87494 8.65847 8.46403 8.88358C10.0295 9.48206 11.0227 10.5874 11.2831 12.2733C11.467 13.4634 11.309 14.6108 10.6835 15.6567C9.95753 16.8704 8.89062 17.6214 7.49645 17.8946C7.35729 17.922 7.21699 17.945 7.0764 17.9629C6.93582 17.9812 6.79381 17.9906 6.63786 18.0054C6.63786 18.6676 6.63786 19.3284 6.63786 20C6.242 20 5.86066 20 5.4537 20C5.4537 19.9471 5.4537 19.8927 5.4537 19.8384C5.4537 19.2789 5.45114 18.7191 5.45569 18.1596C5.45655 18.0526 5.42752 18.019 5.31596 18.0036C4.55954 17.8986 3.81507 17.7393 3.12381 17.4015C2.22225 16.9609 1.61011 16.2347 1.17014 15.3527C0.832057 14.674 0.685212 13.9446 0.627441 13.1782C1.29422 13.0533 1.95616 12.9295 2.61981 12.8051C2.68669 13.1202 2.74304 13.4258 2.81732 13.7272C2.97042 14.3499 3.21146 14.9281 3.66338 15.4037C4.11388 15.8781 4.64264 16.2039 5.2932 16.3163C5.33902 16.3243 5.38626 16.324 5.44374 16.3286C5.44346 14.2218 5.44346 12.1236 5.44346 10.033ZM6.64099 10.2931C6.64099 12.3142 6.64099 14.3188 6.64099 16.3246C6.67713 16.3246 6.70616 16.3286 6.73376 16.324C7.67915 16.1672 8.4037 15.6783 8.88408 14.8516C9.30128 14.1333 9.38153 13.351 9.23981 12.5436C9.1402 11.9747 8.88721 11.4875 8.41366 11.1346C7.88263 10.7391 7.27219 10.5108 6.64099 10.2931ZM5.44943 2.60366C5.32934 2.62756 5.22717 2.64379 5.12728 2.66854C4.21235 2.89479 3.52935 3.40818 3.1591 4.29067C2.91407 4.87436 2.90781 5.47853 3.06377 6.08555C3.19923 6.6126 3.48694 7.04374 3.92093 7.37272C4.23995 7.61433 4.59597 7.79077 4.96962 7.93107C5.12558 7.9897 5.28494 8.04007 5.44943 8.09642C5.44943 6.25601 5.44943 4.4415 5.44943 2.60366Z" fill="black"/>
</svg>
