<svg width="12" height="15" viewBox="0 0 12 15" fill="none" xmlns="http://www.w3.org/2000/svg">
<path d="M0 14.16C0 14.2237 0.0252857 14.2847 0.0702944 14.3297C0.115303 14.3747 0.176348 14.4 0.24 14.4H11.76C11.8237 14.4 11.8847 14.3747 11.9297 14.3297C11.9747 14.2847 12 14.2237 12 14.16V1.2C11.9996 0.88185 11.8731 0.576833 11.6481 0.351867C11.4232 0.1269 11.1181 0.000357316 10.8 0H0.24C0.176348 0 0.115303 0.0252856 0.0702944 0.0702944C0.0252857 0.115303 0 0.176348 0 0.24V14.16ZM11.52 1.2V1.92H10.56V0.96C10.5602 0.791412 10.5157 0.625791 10.431 0.48H10.8C10.9909 0.480222 11.1739 0.556151 11.3089 0.691129C11.4438 0.826107 11.5198 1.00911 11.52 1.2ZM0.48 0.48H9.6C9.72726 0.480151 9.84926 0.530771 9.93924 0.620755C10.0292 0.71074 10.0798 0.832742 10.08 0.96V2.16C10.08 2.22365 10.1053 2.2847 10.1503 2.32971C10.1953 2.37471 10.2563 2.4 10.32 2.4H11.52V13.92H0.48V0.48Z" fill="black"/>
<path d="M10.32 12H8.40001C8.33636 12 8.27532 12.0253 8.23031 12.0703C8.1853 12.1153 8.16001 12.1764 8.16001 12.24C8.16001 12.3037 8.1853 12.3647 8.23031 12.4097C8.27532 12.4547 8.33636 12.48 8.40001 12.48H10.32C10.3837 12.48 10.4447 12.4547 10.4897 12.4097C10.5347 12.3647 10.56 12.3037 10.56 12.24C10.56 12.1764 10.5347 12.1153 10.4897 12.0703C10.4447 12.0253 10.3837 12 10.32 12ZM10.32 12.96H6.48001C6.41636 12.96 6.35532 12.9853 6.31031 13.0303C6.2653 13.0753 6.24001 13.1364 6.24001 13.2C6.24001 13.2637 6.2653 13.3247 6.31031 13.3697C6.35532 13.4147 6.41636 13.44 6.48001 13.44H10.32C10.3837 13.44 10.4447 13.4147 10.4897 13.3697C10.5347 13.3247 10.56 13.2637 10.56 13.2C10.56 13.1364 10.5347 13.0753 10.4897 13.0303C10.4447 12.9853 10.3837 12.96 10.32 12.96ZM3.36001 2.64001C3.42364 2.64008 3.48465 2.66539 3.52964 2.71039C3.57463 2.75538 3.59994 2.81638 3.60001 2.88001C3.60001 2.94367 3.6253 3.00471 3.67031 3.04972C3.71532 3.09473 3.77636 3.12001 3.84001 3.12001C3.90367 3.12001 3.96471 3.09473 4.00972 3.04972C4.05473 3.00471 4.08001 2.94367 4.08001 2.88001C4.07982 2.73118 4.03359 2.58605 3.94765 2.46453C3.86171 2.34302 3.74028 2.25107 3.60001 2.20129V2.16001C3.60001 2.09636 3.57473 2.03532 3.52972 1.99031C3.48471 1.9453 3.42367 1.92001 3.36001 1.92001C3.29636 1.92001 3.23532 1.9453 3.19031 1.99031C3.1453 2.03532 3.12001 2.09636 3.12001 2.16001V2.20129C2.95996 2.25796 2.82507 2.36937 2.73919 2.51584C2.65331 2.66232 2.62196 2.83443 2.65067 3.00178C2.67939 3.16912 2.76632 3.32094 2.89612 3.43041C3.02591 3.53987 3.19022 3.59995 3.36001 3.60001C3.40748 3.60001 3.45388 3.61409 3.49335 3.64046C3.53282 3.66683 3.56358 3.70432 3.58175 3.74817C3.59991 3.79202 3.60466 3.84028 3.5954 3.88684C3.58614 3.93339 3.56329 3.97615 3.52972 4.00972C3.49616 4.04328 3.45339 4.06614 3.40684 4.0754C3.36028 4.08466 3.31203 4.07991 3.26817 4.06174C3.22432 4.04358 3.18683 4.01282 3.16046 3.97335C3.13409 3.93388 3.12001 3.88748 3.12001 3.84001C3.12001 3.77636 3.09473 3.71532 3.04972 3.67031C3.00471 3.6253 2.94367 3.60001 2.88001 3.60001C2.81636 3.60001 2.75532 3.6253 2.71031 3.67031C2.6653 3.71532 2.64001 3.77636 2.64001 3.84001C2.64021 3.98885 2.68644 4.13398 2.77238 4.25549C2.85832 4.37701 2.97975 4.46896 3.12001 4.51873V4.56001C3.12001 4.62367 3.1453 4.68471 3.19031 4.72972C3.23532 4.77473 3.29636 4.80001 3.36001 4.80001C3.42367 4.80001 3.48471 4.77473 3.52972 4.72972C3.57473 4.68471 3.60001 4.62367 3.60001 4.56001V4.51873C3.76007 4.46207 3.89496 4.35066 3.98084 4.20418C4.06672 4.05771 4.09807 3.8856 4.06935 3.71825C4.04064 3.5509 3.95371 3.39909 3.82391 3.28962C3.69412 3.18015 3.52981 3.12008 3.36001 3.12001C3.29636 3.12001 3.23532 3.09473 3.19031 3.04972C3.1453 3.00471 3.12001 2.94367 3.12001 2.88001C3.12001 2.81636 3.1453 2.75532 3.19031 2.71031C3.23532 2.6653 3.29636 2.64001 3.36001 2.64001Z" fill="black"/>
<path d="M5.76002 3.35999C5.76002 2.88532 5.61927 2.4213 5.35555 2.02662C5.09183 1.63195 4.71701 1.32433 4.27846 1.14268C3.83992 0.961031 3.35736 0.913503 2.89181 1.00611C2.42625 1.09871 1.99861 1.32729 1.66297 1.66294C1.32732 1.99858 1.09874 2.42622 1.00614 2.89178C0.913534 3.35733 0.961062 3.83989 1.14271 4.27843C1.32436 4.71698 1.63198 5.0918 2.02665 5.35552C2.42133 5.61923 2.88535 5.75999 3.36002 5.75999C3.99632 5.75927 4.60635 5.50618 5.05628 5.05625C5.50621 4.60632 5.7593 3.99629 5.76002 3.35999ZM3.36002 5.27999C2.98028 5.27999 2.60907 5.16739 2.29333 4.95641C1.97759 4.74544 1.73149 4.44558 1.58617 4.09474C1.44085 3.74391 1.40283 3.35786 1.47692 2.98542C1.551 2.61298 1.73386 2.27086 2.00238 2.00235C2.27089 1.73383 2.61301 1.55097 2.98545 1.47688C3.35789 1.4028 3.74394 1.44082 4.09478 1.58614C4.44561 1.73146 4.74547 1.97756 4.95644 2.2933C5.16742 2.60904 5.28002 2.98025 5.28002 3.35999C5.27945 3.86903 5.07698 4.35706 4.71704 4.71701C4.35709 5.07695 3.86906 5.27942 3.36002 5.27999ZM2.64002 6.71999H1.68002C1.61637 6.71999 1.55533 6.74528 1.51032 6.79029C1.46531 6.8353 1.44002 6.89634 1.44002 6.95999C1.44002 7.02364 1.46531 7.08469 1.51032 7.1297C1.55533 7.17471 1.61637 7.19999 1.68002 7.19999H2.64002C2.70368 7.19999 2.76472 7.17471 2.80973 7.1297C2.85474 7.08469 2.88002 7.02364 2.88002 6.95999C2.88002 6.89634 2.85474 6.8353 2.80973 6.79029C2.76472 6.74528 2.70368 6.71999 2.64002 6.71999ZM7.92002 6.71999H4.08002C4.01637 6.71999 3.95533 6.74528 3.91032 6.79029C3.86531 6.8353 3.84002 6.89634 3.84002 6.95999C3.84002 7.02364 3.86531 7.08469 3.91032 7.1297C3.95533 7.17471 4.01637 7.19999 4.08002 7.19999H7.92002C7.98368 7.19999 8.04472 7.17471 8.08973 7.1297C8.13474 7.08469 8.16002 7.02364 8.16002 6.95999C8.16002 6.89634 8.13474 6.8353 8.08973 6.79029C8.04472 6.74528 7.98368 6.71999 7.92002 6.71999ZM10.32 6.71999H9.84002C9.77637 6.71999 9.71533 6.74528 9.67032 6.79029C9.62531 6.8353 9.60002 6.89634 9.60002 6.95999C9.60002 7.02364 9.62531 7.08469 9.67032 7.1297C9.71533 7.17471 9.77637 7.19999 9.84002 7.19999H10.32C10.3837 7.19999 10.4447 7.17471 10.4897 7.1297C10.5347 7.08469 10.56 7.02364 10.56 6.95999C10.56 6.89634 10.5347 6.8353 10.4897 6.79029C10.4447 6.74528 10.3837 6.71999 10.32 6.71999ZM2.64002 7.67999H1.68002C1.61637 7.67999 1.55533 7.70528 1.51032 7.75029C1.46531 7.7953 1.44002 7.85634 1.44002 7.91999C1.44002 7.98364 1.46531 8.04469 1.51032 8.0897C1.55533 8.13471 1.61637 8.15999 1.68002 8.15999H2.64002C2.70368 8.15999 2.76472 8.13471 2.80973 8.0897C2.85474 8.04469 2.88002 7.98364 2.88002 7.91999C2.88002 7.85634 2.85474 7.7953 2.80973 7.75029C2.76472 7.70528 2.70368 7.67999 2.64002 7.67999ZM7.92002 7.67999H4.08002C4.01637 7.67999 3.95533 7.70528 3.91032 7.75029C3.86531 7.7953 3.84002 7.85634 3.84002 7.91999C3.84002 7.98364 3.86531 8.04469 3.91032 8.0897C3.95533 8.13471 4.01637 8.15999 4.08002 8.15999H7.92002C7.98368 8.15999 8.04472 8.13471 8.08973 8.0897C8.13474 8.04469 8.16002 7.98364 8.16002 7.91999C8.16002 7.85634 8.13474 7.7953 8.08973 7.75029C8.04472 7.70528 7.98368 7.67999 7.92002 7.67999ZM10.32 7.67999H9.84002C9.77637 7.67999 9.71533 7.70528 9.67032 7.75029C9.62531 7.7953 9.60002 7.85634 9.60002 7.91999C9.60002 7.98364 9.62531 8.04469 9.67032 8.0897C9.71533 8.13471 9.77637 8.15999 9.84002 8.15999H10.32C10.3837 8.15999 10.4447 8.13471 10.4897 8.0897C10.5347 8.04469 10.56 7.98364 10.56 7.91999C10.56 7.85634 10.5347 7.7953 10.4897 7.75029C10.4447 7.70528 10.3837 7.67999 10.32 7.67999ZM2.64002 8.63999H1.68002C1.61637 8.63999 1.55533 8.66528 1.51032 8.71029C1.46531 8.7553 1.44002 8.81634 1.44002 8.87999C1.44002 8.94364 1.46531 9.00469 1.51032 9.0497C1.55533 9.09471 1.61637 9.11999 1.68002 9.11999H2.64002C2.70368 9.11999 2.76472 9.09471 2.80973 9.0497C2.85474 9.00469 2.88002 8.94364 2.88002 8.87999C2.88002 8.81634 2.85474 8.7553 2.80973 8.71029C2.76472 8.66528 2.70368 8.63999 2.64002 8.63999ZM7.92002 8.63999H4.08002C4.01637 8.63999 3.95533 8.66528 3.91032 8.71029C3.86531 8.7553 3.84002 8.81634 3.84002 8.87999C3.84002 8.94364 3.86531 9.00469 3.91032 9.0497C3.95533 9.09471 4.01637 9.11999 4.08002 9.11999H7.92002C7.98368 9.11999 8.04472 9.09471 8.08973 9.0497C8.13474 9.00469 8.16002 8.94364 8.16002 8.87999C8.16002 8.81634 8.13474 8.7553 8.08973 8.71029C8.04472 8.66528 7.98368 8.63999 7.92002 8.63999ZM10.32 8.63999H9.84002C9.77637 8.63999 9.71533 8.66528 9.67032 8.71029C9.62531 8.7553 9.60002 8.81634 9.60002 8.87999C9.60002 8.94364 9.62531 9.00469 9.67032 9.0497C9.71533 9.09471 9.77637 9.11999 9.84002 9.11999H10.32C10.3837 9.11999 10.4447 9.09471 10.4897 9.0497C10.5347 9.00469 10.56 8.94364 10.56 8.87999C10.56 8.81634 10.5347 8.7553 10.4897 8.71029C10.4447 8.66528 10.3837 8.63999 10.32 8.63999ZM2.64002 9.59999H1.68002C1.61637 9.59999 1.55533 9.62528 1.51032 9.67029C1.46531 9.7153 1.44002 9.77634 1.44002 9.83999C1.44002 9.90364 1.46531 9.96469 1.51032 10.0097C1.55533 10.0547 1.61637 10.08 1.68002 10.08H2.64002C2.70368 10.08 2.76472 10.0547 2.80973 10.0097C2.85474 9.96469 2.88002 9.90364 2.88002 9.83999C2.88002 9.77634 2.85474 9.7153 2.80973 9.67029C2.76472 9.62528 2.70368 9.59999 2.64002 9.59999ZM7.92002 9.59999H4.08002C4.01637 9.59999 3.95533 9.62528 3.91032 9.67029C3.86531 9.7153 3.84002 9.77634 3.84002 9.83999C3.84002 9.90364 3.86531 9.96469 3.91032 10.0097C3.95533 10.0547 4.01637 10.08 4.08002 10.08H7.92002C7.98368 10.08 8.04472 10.0547 8.08973 10.0097C8.13474 9.96469 8.16002 9.90364 8.16002 9.83999C8.16002 9.77634 8.13474 9.7153 8.08973 9.67029C8.04472 9.62528 7.98368 9.59999 7.92002 9.59999ZM10.32 9.59999H9.84002C9.77637 9.59999 9.71533 9.62528 9.67032 9.67029C9.62531 9.7153 9.60002 9.77634 9.60002 9.83999C9.60002 9.90364 9.62531 9.96469 9.67032 10.0097C9.71533 10.0547 9.77637 10.08 9.84002 10.08H10.32C10.3837 10.08 10.4447 10.0547 10.4897 10.0097C10.5347 9.96469 10.56 9.90364 10.56 9.83999C10.56 9.77634 10.5347 9.7153 10.4897 9.67029C10.4447 9.62528 10.3837 9.59999 10.32 9.59999ZM2.64002 10.56H1.68002C1.61637 10.56 1.55533 10.5853 1.51032 10.6303C1.46531 10.6753 1.44002 10.7363 1.44002 10.8C1.44002 10.8636 1.46531 10.9247 1.51032 10.9697C1.55533 11.0147 1.61637 11.04 1.68002 11.04H2.64002C2.70368 11.04 2.76472 11.0147 2.80973 10.9697C2.85474 10.9247 2.88002 10.8636 2.88002 10.8C2.88002 10.7363 2.85474 10.6753 2.80973 10.6303C2.76472 10.5853 2.70368 10.56 2.64002 10.56ZM8.16002 10.8C8.16002 10.7363 8.13474 10.6753 8.08973 10.6303C8.04472 10.5853 7.98368 10.56 7.92002 10.56H4.08002C4.01637 10.56 3.95533 10.5853 3.91032 10.6303C3.86531 10.6753 3.84002 10.7363 3.84002 10.8C3.84002 10.8636 3.86531 10.9247 3.91032 10.9697C3.95533 11.0147 4.01637 11.04 4.08002 11.04H7.92002C7.98368 11.04 8.04472 11.0147 8.08973 10.9697C8.13474 10.9247 8.16002 10.8636 8.16002 10.8ZM10.32 10.56H9.84002C9.77637 10.56 9.71533 10.5853 9.67032 10.6303C9.62531 10.6753 9.60002 10.7363 9.60002 10.8C9.60002 10.8636 9.62531 10.9247 9.67032 10.9697C9.71533 11.0147 9.77637 11.04 9.84002 11.04H10.32C10.3837 11.04 10.4447 11.0147 10.4897 10.9697C10.5347 10.9247 10.56 10.8636 10.56 10.8C10.56 10.7363 10.5347 10.6753 10.4897 10.6303C10.4447 10.5853 10.3837 10.56 10.32 10.56ZM10.32 3.35999H7.92002C7.85637 3.35999 7.79533 3.38528 7.75032 3.43029C7.70531 3.4753 7.68002 3.53634 7.68002 3.59999C7.68002 3.66364 7.70531 3.72469 7.75032 3.7697C7.79533 3.81471 7.85637 3.83999 7.92002 3.83999H10.32C10.3837 3.83999 10.4447 3.81471 10.4897 3.7697C10.5347 3.72469 10.56 3.66364 10.56 3.59999C10.56 3.53634 10.5347 3.4753 10.4897 3.43029C10.4447 3.38528 10.3837 3.35999 10.32 3.35999ZM10.32 4.31999H6.72002C6.65637 4.31999 6.59533 4.34528 6.55032 4.39029C6.50531 4.4353 6.48002 4.49634 6.48002 4.55999C6.48002 4.62364 6.50531 4.68469 6.55032 4.7297C6.59533 4.77471 6.65637 4.79999 6.72002 4.79999H10.32C10.3837 4.79999 10.4447 4.77471 10.4897 4.7297C10.5347 4.68469 10.56 4.62364 10.56 4.55999C10.56 4.49634 10.5347 4.4353 10.4897 4.39029C10.4447 4.34528 10.3837 4.31999 10.32 4.31999ZM10.32 5.27999H6.72002C6.65637 5.27999 6.59533 5.30528 6.55032 5.35029C6.50531 5.3953 6.48002 5.45634 6.48002 5.51999C6.48002 5.58364 6.50531 5.64469 6.55032 5.6897C6.59533 5.73471 6.65637 5.75999 6.72002 5.75999H10.32C10.3837 5.75999 10.4447 5.73471 10.4897 5.6897C10.5347 5.64469 10.56 5.58364 10.56 5.51999C10.56 5.45634 10.5347 5.3953 10.4897 5.35029C10.4447 5.30528 10.3837 5.27999 10.32 5.27999Z" fill="black"/>
</svg>
