<svg width="24" height="20" viewBox="0 0 24 20" fill="none" xmlns="http://www.w3.org/2000/svg">
<path d="M11.9204 19.9944C9.1455 19.9944 6.37006 19.9888 3.59518 20C3.17177 20.0017 2.87174 19.8547 2.61545 19.5222C0.541023 16.8325 -0.325986 13.8059 0.109762 10.4337C0.763104 5.37467 4.54744 1.30994 9.55265 0.25057C14.9022 -0.881141 20.5305 1.90495 22.7703 6.90624C24.7791 11.3916 24.2217 15.633 21.2713 19.5626C21.0358 19.8766 20.7447 19.9994 20.3577 19.9983C17.5453 19.991 14.7328 19.9944 11.9204 19.9944ZM11.9529 18.3327C14.5781 18.3327 17.2032 18.3305 19.8283 18.3372C20.0358 18.3378 20.1682 18.2845 20.291 18.1095C21.9488 15.7412 22.5948 13.1323 22.1086 10.2761C21.13 4.53066 15.6105 0.730061 9.93848 1.87635C2.58349 3.36305 -0.782483 12.0432 3.63781 18.1168C3.75558 18.2789 3.87783 18.3378 4.07692 18.3372C6.70206 18.3305 9.3272 18.3327 11.9529 18.3327Z" fill="black"/>
<path d="M13.5612 14.6426C13.5679 15.3357 13.1479 15.9397 12.526 16.1646C11.9079 16.3878 11.2176 16.2 10.8037 15.6975C9.33832 13.9175 7.87181 12.1375 6.40586 10.3575C6.34641 10.2857 6.28641 10.2139 6.23145 10.1382C5.95441 9.75851 5.9875 9.27958 6.30996 8.96665C6.62962 8.65652 7.09173 8.62232 7.45794 8.90945C7.90602 9.26108 8.3384 9.63177 8.77696 9.99517C10.179 11.1566 11.581 12.3175 12.983 13.4795C13.3576 13.7896 13.5371 14.1956 13.5612 14.6426Z" fill="black"/>
<path d="M6.3146 7.10759C5.91643 7.10086 5.04213 6.26469 5.0741 5.97588C5.09204 5.81436 5.20364 5.6035 5.33655 5.53172C5.46722 5.46105 5.72575 5.47451 5.84352 5.56312C6.12393 5.77342 6.38078 6.02971 6.59276 6.309C6.68418 6.42901 6.69988 6.67633 6.64043 6.82157C6.58267 6.96402 6.38583 7.04982 6.3146 7.10759Z" fill="black"/>
<path d="M18.9912 5.85865C18.9906 6.26524 18.1713 7.12552 17.8707 7.09075C17.7103 7.07224 17.5006 6.95728 17.4322 6.82493C17.3637 6.69145 17.3806 6.4346 17.4703 6.31571C17.6812 6.03699 17.9374 5.7807 18.2173 5.57152C18.3351 5.48347 18.5818 5.48291 18.7276 5.54404C18.8617 5.59956 18.939 5.79192 18.9912 5.85865Z" fill="black"/>
<path d="M20.243 12.6399C20.0753 12.6399 19.9065 12.6517 19.7399 12.6371C19.4713 12.6141 19.2946 12.4173 19.2901 12.1571C19.2851 11.8963 19.4539 11.6765 19.7197 11.6602C20.0629 11.6395 20.4101 11.6406 20.7533 11.6619C21.0107 11.6776 21.1902 11.9137 21.1806 12.1644C21.1711 12.4089 20.995 12.6102 20.7466 12.6332C20.58 12.6489 20.4112 12.636 20.2435 12.636C20.243 12.6383 20.243 12.6394 20.243 12.6399Z" fill="black"/>
<path d="M12.5668 3.61599C12.5662 3.75619 12.573 3.89696 12.5651 4.0366C12.5488 4.31868 12.3509 4.51777 12.0867 4.52674C11.8265 4.53572 11.5915 4.34504 11.5742 4.07081C11.5545 3.76404 11.5534 3.45336 11.5747 3.1466C11.5938 2.87124 11.8293 2.68729 12.0923 2.70019C12.3548 2.71309 12.5511 2.91442 12.5657 3.19482C12.573 3.33503 12.5673 3.47579 12.5668 3.61599Z" fill="black"/>
<path d="M3.65015 12.6405C3.50041 12.6405 3.35067 12.6484 3.2015 12.6388C2.92166 12.6209 2.72818 12.4162 2.72706 12.1492C2.72593 11.8924 2.90315 11.6754 3.16897 11.6602C3.4948 11.6412 3.82344 11.64 4.1487 11.6608C4.40724 11.677 4.5923 11.9115 4.5867 12.1588C4.58109 12.4078 4.38705 12.617 4.12627 12.6371C3.96812 12.6495 3.80885 12.6394 3.65015 12.6394C3.65015 12.64 3.65015 12.6405 3.65015 12.6405Z" fill="black"/>
</svg>
